<!--?xml version="1.0" encoding="utf-8"?-->
<!-- Svg Vector Icons : http://www.onlinewebfonts.com/icon -->

<svg version="1.1" xmlns="http://www.w3.org/2000/svg" xmlns:xlink="http://www.w3.org/1999/xlink" x="0px" y="0px" viewBox="0 0 256 256" enable-background="new 0 0 256 256" xml:space="preserve">
<metadata> Svg Vector Icons : http://www.onlinewebfonts.com/icon </metadata>
<g> <path fill="#000000" data-title="Layer 0" xs="0" d="M233.7,164.9c-1.7-1.7-4.3-2.4-6.6-1.5c-10.3,3.5-21.1,5.3-31.8,5.3c-53.9,0-97.7-43.8-97.7-97.7 c0-10.8,1.8-21.4,5.3-31.8c0.8-2.3,0.2-4.9-1.5-6.6c-1.8-1.7-4.3-2.3-6.6-1.5C50.3,46.6,20.4,88.5,20.4,135.5 c0,60.9,49.6,110.5,110.5,110.5c47,0,89-29.9,104.5-74.3C236.1,169.2,235.5,166.6,233.7,164.9L233.7,164.9z M130.8,233 c-53.8,0-97.6-43.8-97.6-97.6c0-37.2,21.2-70.8,53.9-87.3c-1.6,7.5-2.4,15.1-2.4,22.8c0,61,49.6,110.6,110.6,110.6 c7.6,0,15.3-0.8,22.8-2.4C201.7,211.8,168,233,130.8,233z M174,53.3l5.9,10.8l5.9-10.8c2.4-4.4,6-8,10.4-10.4l10.8-5.9l-10.8-5.9 c-4.4-2.4-8-6-10.4-10.4L179.9,10L174,20.8c-2.4,4.4-6,8-10.4,10.4l-10.8,5.9l10.8,5.9C168,45.4,171.6,49,174,53.3z M199.5,91.1 l6.6,3.6c2.7,1.5,4.9,3.6,6.3,6.3l3.6,6.6l3.6-6.6c1.5-2.7,3.6-4.9,6.3-6.3l6.6-3.6l-6.6-3.6c-2.7-1.5-4.9-3.6-6.3-6.3l-3.6-6.6 l-3.6,6.6c-1.5,2.7-3.6,4.9-6.3,6.3L199.5,91.1z"/></g>
</svg>