<!--?xml version="1.0" encoding="utf-8"?-->
<!-- Svg Vector Icons : http://www.onlinewebfonts.com/icon -->

<svg version="1.1" xmlns="http://www.w3.org/2000/svg" xmlns:xlink="http://www.w3.org/1999/xlink" x="0px" y="0px" viewBox="0 0 256 256" enable-background="new 0 0 256 256" xml:space="preserve">
<metadata> Svg Vector Icons : http://www.onlinewebfonts.com/icon </metadata>
<g><g><path fill="#ebdbb2" data-title="Layer 0" xs="0" d="M246,142.9c0-15.1-3.1-29.7-9.3-43.6c-5.9-13.3-14.4-25.2-25.2-35.5c-19.5-18.5-44.7-29.8-71.8-32.3l14.6-15.8c3.8-4.1,4.2-9.8,1-12.8c-3.2-3-8.9-2.1-12.6,1.9l-25.7,27.8c-3.8,4.1-4.2,9.8-1,12.8c0.3,0.3,0.6,0.5,0.9,0.7c0.1,0.2,0.3,0.3,0.4,0.5L143,74.4c3.8,4.1,9.4,4.9,12.6,1.9c3.2-3,2.8-8.7-1-12.8l-14.8-16c50.7,5.5,90.3,46.3,90.3,95.3c0,52.9-45.8,96-102.1,96c-56.2,0-102-43-102.1-95.8h-0.1c-0.4-4-3.8-7.1-7.9-7.1c-4.1,0-7.5,3.1-7.9,7.1h0.1c0,0.1,0,0.2,0,0.2c0,0.2,0,0.4,0,0.6c0,0.3,0,0.5,0,0.8c0.3,14.6,3.4,28.7,9.4,42.1c6,13.3,14.5,25.2,25.4,35.5c22.3,21,51.8,32.5,83.2,32.5c15.9,0,31.3-2.9,45.8-8.7c14-5.6,26.6-13.6,37.5-23.9c10.9-10.3,19.4-22.2,25.4-35.6C242.8,172.8,246,158.1,246,142.9z"/></g></g>
</svg>